<?xml version="1.0" encoding="UTF-8" standalone="no"?>
<!DOCTYPE svg PUBLIC "-//W3C//DTD SVG 1.1//EN"
 "http://www.w3.org/Graphics/SVG/1.1/DTD/svg11.dtd">
<!-- Generated by graphviz version 14.1.2 (20260124.0452)
 -->
<!-- Title: AWS CI/CD Architecture &#45; Deploy and Traffic Flow Pages: 1 -->
<svg width="2811pt" height="785pt"
 viewBox="0.00 0.00 2811.00 785.00" xmlns="http://www.w3.org/2000/svg" xmlns:xlink="http://www.w3.org/1999/xlink">
<g id="graph0" class="graph" transform="scale(1 1) rotate(0) translate(144 640.75)">
<title>AWS CI/CD Architecture &#45; Deploy and Traffic Flow</title>
<text xml:space="preserve" text-anchor="middle" x="1261.6" y="-5.5" font-family="Sans-Serif" font-size="15.00" fill="#2d3436">AWS CI/CD Architecture &#45; Deploy and Traffic Flow</text>
<g id="clust1" class="cluster">
<title>cluster_Infrastructure Provisioning</title>
<path fill="#e5f5fd" stroke="#aeb6be" stroke-width="2" d="M237.55,-190.75C237.55,-190.75 404.3,-190.75 404.3,-190.75 410.3,-190.75 416.3,-196.75 416.3,-202.75 416.3,-202.75 416.3,-318.75 416.3,-318.75 416.3,-324.75 410.3,-330.75 404.3,-330.75 404.3,-330.75 237.55,-330.75 237.55,-330.75 231.55,-330.75 225.55,-324.75 225.55,-318.75 225.55,-318.75 225.55,-202.75 225.55,-202.75 225.55,-196.75 231.55,-190.75 237.55,-190.75"/>
<text xml:space="preserve" text-anchor="middle" x="320.93" y="-312.5" font-family="Sans-Serif" font-size="15.00" fill="#2d3436">Infrastructure Provisioning</text>
</g>
<g id="clust2" class="cluster">
<title>cluster_CI/CD Pipeline</title>
<path fill="#e5f5fd" stroke="#aeb6be" stroke-width="2" d="M274.03,-31.75C274.03,-31.75 366.83,-31.75 366.83,-31.75 372.83,-31.75 378.83,-37.75 378.83,-43.75 378.83,-43.75 378.83,-159.75 378.83,-159.75 378.83,-165.75 372.83,-171.75 366.83,-171.75 366.83,-171.75 274.03,-171.75 274.03,-171.75 268.03,-171.75 262.03,-165.75 262.03,-159.75 262.03,-159.75 262.03,-43.75 262.03,-43.75 262.03,-37.75 268.03,-31.75 274.03,-31.75"/>
<text xml:space="preserve" text-anchor="middle" x="318.4" y="-153.5" font-family="Sans-Serif" font-size="15.00" fill="#2d3436">CI/CD Pipeline</text>
</g>
<g id="clust3" class="cluster">
<title>cluster_Container Registry</title>
<path fill="#e5f5fd" stroke="#aeb6be" stroke-width="2" d="M600.55,-31.75C600.55,-31.75 716.3,-31.75 716.3,-31.75 722.3,-31.75 728.3,-37.75 728.3,-43.75 728.3,-43.75 728.3,-159.75 728.3,-159.75 728.3,-165.75 722.3,-171.75 716.3,-171.75 716.3,-171.75 600.55,-171.75 600.55,-171.75 594.55,-171.75 588.55,-165.75 588.55,-159.75 588.55,-159.75 588.55,-43.75 588.55,-43.75 588.55,-37.75 594.55,-31.75 600.55,-31.75"/>
<text xml:space="preserve" text-anchor="middle" x="658.42" y="-153.5" font-family="Sans-Serif" font-size="15.00" fill="#2d3436">Container Registry</text>
</g>
<g id="clust4" class="cluster">
<title>cluster_DNS Management</title>
<path fill="#e5f5fd" stroke="#aeb6be" stroke-width="2" d="M274.03,-348.75C274.03,-348.75 704.33,-348.75 704.33,-348.75 710.33,-348.75 716.33,-354.75 716.33,-360.75 716.33,-360.75 716.33,-476.75 716.33,-476.75 716.33,-482.75 710.33,-488.75 704.33,-488.75 704.33,-488.75 274.03,-488.75 274.03,-488.75 268.03,-488.75 262.03,-482.75 262.03,-476.75 262.03,-476.75 262.03,-360.75 262.03,-360.75 262.03,-354.75 268.03,-348.75 274.03,-348.75"/>
<text xml:space="preserve" text-anchor="middle" x="331.53" y="-470.5" font-family="Sans-Serif" font-size="15.00" fill="#2d3436">DNS Management</text>
</g>
<g id="clust5" class="cluster">
<title>cluster_Load Balancing</title>
<path fill="#e5f5fd" stroke="#aeb6be" stroke-width="2" d="M885.55,-261.75C885.55,-261.75 1632.75,-261.75 1632.75,-261.75 1638.75,-261.75 1644.75,-267.75 1644.75,-273.75 1644.75,-273.75 1644.75,-389.75 1644.75,-389.75 1644.75,-395.75 1638.75,-401.75 1632.75,-401.75 1632.75,-401.75 885.55,-401.75 885.55,-401.75 879.55,-401.75 873.55,-395.75 873.55,-389.75 873.55,-389.75 873.55,-273.75 873.55,-273.75 873.55,-267.75 879.55,-261.75 885.55,-261.75"/>
<text xml:space="preserve" text-anchor="middle" x="932.55" y="-383.5" font-family="Sans-Serif" font-size="15.00" fill="#2d3436">Load Balancing</text>
</g>
<g id="clust6" class="cluster">
<title>cluster_Container Orchestration &#45; Amazon EKS</title>
<path fill="#e5f5fd" stroke="#aeb6be" stroke-width="2" d="M1803.5,-146.75C1803.5,-146.75 2503.2,-146.75 2503.2,-146.75 2509.2,-146.75 2515.2,-152.75 2515.2,-158.75 2515.2,-158.75 2515.2,-274.75 2515.2,-274.75 2515.2,-280.75 2509.2,-286.75 2503.2,-286.75 2503.2,-286.75 1803.5,-286.75 1803.5,-286.75 1797.5,-286.75 1791.5,-280.75 1791.5,-274.75 1791.5,-274.75 1791.5,-158.75 1791.5,-158.75 1791.5,-152.75 1797.5,-146.75 1803.5,-146.75"/>
<text xml:space="preserve" text-anchor="middle" x="1930.38" y="-268.5" font-family="Sans-Serif" font-size="15.00" fill="#2d3436">Container Orchestration &#45; Amazon EKS</text>
</g>
<!-- terraform -->
<g id="node1" class="node">
<title>terraform</title>
<path fill="none" stroke="black" d="M358.83,-299.15C358.83,-299.15 282.03,-299.15 282.03,-299.15 276.03,-299.15 270.03,-293.15 270.03,-287.15 270.03,-287.15 270.03,-210.35 270.03,-210.35 270.03,-204.35 276.03,-198.35 282.03,-198.35 282.03,-198.35 358.83,-198.35 358.83,-198.35 364.83,-198.35 370.83,-204.35 370.83,-210.35 370.83,-210.35 370.83,-287.15 370.83,-287.15 370.83,-293.15 364.83,-299.15 358.83,-299.15"/>
<text xml:space="preserve" text-anchor="middle" x="320.43" y="-199.5" font-family="Sans-Serif" font-size="13.00" fill="#2d3436">Terraform</text>
</g>
<!-- ecr -->
<g id="node3" class="node">
<title>ecr</title>
<path fill="none" stroke="black" d="M696.32,-140.15C696.32,-140.15 619.52,-140.15 619.52,-140.15 613.52,-140.15 607.52,-134.15 607.52,-128.15 607.52,-128.15 607.52,-51.35 607.52,-51.35 607.52,-45.35 613.52,-39.35 619.52,-39.35 619.52,-39.35 696.32,-39.35 696.32,-39.35 702.32,-39.35 708.32,-45.35 708.32,-51.35 708.32,-51.35 708.32,-128.15 708.32,-128.15 708.32,-134.15 702.32,-140.15 696.32,-140.15"/>
<text xml:space="preserve" text-anchor="middle" x="657.92" y="-40.5" font-family="Sans-Serif" font-size="13.00" fill="#2d3436">Amazon ECR</text>
</g>
<!-- terraform&#45;&gt;ecr -->
<g id="edge4" class="edge">
<title>terraform&#45;&gt;ecr</title>
<path fill="none" stroke="#7b8894" d="M371.03,-212.55C459.55,-212.55 633.2,-212.55 633.2,-212.55 633.2,-212.55 633.2,-151.92 633.2,-151.92"/>
<polygon fill="#7b8894" stroke="#7b8894" points="636.7,-151.92 633.2,-141.92 629.7,-151.92 636.7,-151.92"/>
</g>
<!-- r53_zone -->
<g id="node4" class="node">
<title>r53_zone</title>
<path fill="none" stroke="black" d="M696.32,-457.15C696.32,-457.15 619.52,-457.15 619.52,-457.15 613.52,-457.15 607.52,-451.15 607.52,-445.15 607.52,-445.15 607.52,-368.35 607.52,-368.35 607.52,-362.35 613.52,-356.35 619.52,-356.35 619.52,-356.35 696.32,-356.35 696.32,-356.35 702.32,-356.35 708.32,-362.35 708.32,-368.35 708.32,-368.35 708.32,-445.15 708.32,-445.15 708.32,-451.15 702.32,-457.15 696.32,-457.15"/>
<text xml:space="preserve" text-anchor="middle" x="657.92" y="-357.5" font-family="Sans-Serif" font-size="13.00" fill="#2d3436">Hosted Zone</text>
</g>
<!-- terraform&#45;&gt;r53_zone -->
<g id="edge1" class="edge">
<title>terraform&#45;&gt;r53_zone</title>
<path fill="none" stroke="#7b8894" d="M371.25,-289.22C471.09,-289.22 683.2,-289.22 683.2,-289.22 683.2,-289.22 683.2,-344.37 683.2,-344.37"/>
<polygon fill="#7b8894" stroke="#7b8894" points="679.7,-344.37 683.2,-354.37 686.7,-344.37 679.7,-344.37"/>
<text xml:space="preserve" text-anchor="middle" x="502.42" y="-375.95" font-family="Times,serif" font-size="14.00">Provisions Infrastructure</text>
</g>
<!-- alb -->
<g id="node6" class="node">
<title>alb</title>
<path fill="none" stroke="black" d="M970.35,-370.15C970.35,-370.15 893.55,-370.15 893.55,-370.15 887.55,-370.15 881.55,-364.15 881.55,-358.15 881.55,-358.15 881.55,-281.35 881.55,-281.35 881.55,-275.35 887.55,-269.35 893.55,-269.35 893.55,-269.35 970.35,-269.35 970.35,-269.35 976.35,-269.35 982.35,-275.35 982.35,-281.35 982.35,-281.35 982.35,-358.15 982.35,-358.15 982.35,-364.15 976.35,-370.15 970.35,-370.15"/>
<text xml:space="preserve" text-anchor="middle" x="931.95" y="-270.5" font-family="Sans-Serif" font-size="13.00" fill="#2d3436">Application Load Balancer</text>
</g>
<!-- terraform&#45;&gt;alb -->
<g id="edge2" class="edge">
<title>terraform&#45;&gt;alb</title>
<path fill="none" stroke="#7b8894" d="M371.25,-279.28C371.25,-279.28 869.87,-279.28 869.87,-279.28"/>
<polygon fill="#7b8894" stroke="#7b8894" points="869.87,-282.78 879.87,-279.28 869.87,-275.78 869.87,-282.78"/>
</g>
<!-- eks -->
<g id="node10" class="node">
<title>eks</title>
<path fill="none" stroke="black" d="M1888.3,-255.15C1888.3,-255.15 1811.5,-255.15 1811.5,-255.15 1805.5,-255.15 1799.5,-249.15 1799.5,-243.15 1799.5,-243.15 1799.5,-166.35 1799.5,-166.35 1799.5,-160.35 1805.5,-154.35 1811.5,-154.35 1811.5,-154.35 1888.3,-154.35 1888.3,-154.35 1894.3,-154.35 1900.3,-160.35 1900.3,-166.35 1900.3,-166.35 1900.3,-243.15 1900.3,-243.15 1900.3,-249.15 1894.3,-255.15 1888.3,-255.15"/>
<text xml:space="preserve" text-anchor="middle" x="1849.9" y="-155.5" font-family="Sans-Serif" font-size="13.00" fill="#2d3436">EKS Cluster</text>
</g>
<!-- terraform&#45;&gt;eks -->
<g id="edge3" class="edge">
<title>terraform&#45;&gt;eks</title>
<path fill="none" stroke="#7b8894" d="M371.31,-226.75C371.31,-226.75 1787.7,-226.75 1787.7,-226.75"/>
<polygon fill="#7b8894" stroke="#7b8894" points="1787.7,-230.25 1797.7,-226.75 1787.7,-223.25 1787.7,-230.25"/>
</g>
<!-- github -->
<g id="node2" class="node">
<title>github</title>
<path fill="none" stroke="black" d="M358.83,-140.15C358.83,-140.15 282.03,-140.15 282.03,-140.15 276.03,-140.15 270.03,-134.15 270.03,-128.15 270.03,-128.15 270.03,-51.35 270.03,-51.35 270.03,-45.35 276.03,-39.35 282.03,-39.35 282.03,-39.35 358.83,-39.35 358.83,-39.35 364.83,-39.35 370.83,-45.35 370.83,-51.35 370.83,-51.35 370.83,-128.15 370.83,-128.15 370.83,-134.15 364.83,-140.15 358.83,-140.15"/>
<text xml:space="preserve" text-anchor="middle" x="320.43" y="-40.5" font-family="Sans-Serif" font-size="13.00" fill="#2d3436">GitHub Actions</text>
</g>
<!-- github&#45;&gt;ecr -->
<g id="edge5" class="edge">
<title>github&#45;&gt;ecr</title>
<path fill="none" stroke="#7b8894" d="M371.32,-89.75C371.32,-89.75 595.66,-89.75 595.66,-89.75"/>
<polygon fill="#7b8894" stroke="#7b8894" points="595.66,-93.25 605.66,-89.75 595.66,-86.25 595.66,-93.25"/>
<text xml:space="preserve" text-anchor="middle" x="502.42" y="-92.95" font-family="Times,serif" font-size="14.00">Build &amp; Push Image</text>
</g>
<!-- ecr&#45;&gt;eks -->
<g id="edge6" class="edge">
<title>ecr&#45;&gt;eks</title>
<path fill="none" stroke="#7b8894" d="M658.2,-140.63C658.2,-159.48 658.2,-176.35 658.2,-176.35 658.2,-176.35 1787.56,-176.35 1787.56,-176.35"/>
<polygon fill="#7b8894" stroke="#7b8894" points="1787.56,-179.85 1797.56,-176.35 1787.56,-172.85 1787.56,-179.85"/>
<text xml:space="preserve" text-anchor="middle" x="1304.78" y="-106.95" font-family="Times,serif" font-size="14.00">Deploy Container</text>
</g>
<!-- r53_zone&#45;&gt;alb -->
<g id="edge9" class="edge">
<title>r53_zone&#45;&gt;alb</title>
<path fill="none" stroke="#7b8894" d="M708.82,-363.25C708.82,-363.25 869.81,-363.25 869.81,-363.25"/>
<polygon fill="#7b8894" stroke="#7b8894" points="869.81,-366.75 879.81,-363.25 869.81,-359.75 869.81,-366.75"/>
<text xml:space="preserve" text-anchor="middle" x="800.92" y="-386.95" font-family="Times,serif" font-size="14.00">2. Resolves to ALB</text>
</g>
<!-- r53 -->
<g id="node5" class="node">
<title>r53</title>
<path fill="none" stroke="black" d="M358.83,-457.15C358.83,-457.15 282.03,-457.15 282.03,-457.15 276.03,-457.15 270.03,-451.15 270.03,-445.15 270.03,-445.15 270.03,-368.35 270.03,-368.35 270.03,-362.35 276.03,-356.35 282.03,-356.35 282.03,-356.35 358.83,-356.35 358.83,-356.35 364.83,-356.35 370.83,-362.35 370.83,-368.35 370.83,-368.35 370.83,-445.15 370.83,-445.15 370.83,-451.15 364.83,-457.15 358.83,-457.15"/>
<text xml:space="preserve" text-anchor="middle" x="320.43" y="-357.5" font-family="Sans-Serif" font-size="13.00" fill="#2d3436">DNS Records</text>
</g>
<!-- r53&#45;&gt;r53_zone -->
<g id="edge8" class="edge">
<title>r53&#45;&gt;r53_zone</title>
<path fill="none" stroke="#7b8894" d="M371.32,-406.75C371.32,-406.75 595.66,-406.75 595.66,-406.75"/>
<polygon fill="#7b8894" stroke="#7b8894" points="595.66,-410.25 605.66,-406.75 595.66,-403.25 595.66,-410.25"/>
</g>
<!-- listener -->
<g id="node7" class="node">
<title>listener</title>
<path fill="none" stroke="black" d="M1217.4,-370.15C1217.4,-370.15 1140.6,-370.15 1140.6,-370.15 1134.6,-370.15 1128.6,-364.15 1128.6,-358.15 1128.6,-358.15 1128.6,-281.35 1128.6,-281.35 1128.6,-275.35 1134.6,-269.35 1140.6,-269.35 1140.6,-269.35 1217.4,-269.35 1217.4,-269.35 1223.4,-269.35 1229.4,-275.35 1229.4,-281.35 1229.4,-281.35 1229.4,-358.15 1229.4,-358.15 1229.4,-364.15 1223.4,-370.15 1217.4,-370.15"/>
<text xml:space="preserve" text-anchor="middle" x="1179" y="-270.5" font-family="Sans-Serif" font-size="13.00" fill="#2d3436">Listener</text>
</g>
<!-- alb&#45;&gt;listener -->
<g id="edge10" class="edge">
<title>alb&#45;&gt;listener</title>
<path fill="none" stroke="#7b8894" d="M982.84,-319.75C982.84,-319.75 1116.66,-319.75 1116.66,-319.75"/>
<polygon fill="#7b8894" stroke="#7b8894" points="1116.66,-323.25 1126.66,-319.75 1116.66,-316.25 1116.66,-323.25"/>
<text xml:space="preserve" text-anchor="middle" x="1055.48" y="-322.95" font-family="Times,serif" font-size="14.00">3. Routes Traffic</text>
</g>
<!-- target_group -->
<g id="node8" class="node">
<title>target_group</title>
<path fill="none" stroke="black" d="M1468.95,-370.15C1468.95,-370.15 1392.15,-370.15 1392.15,-370.15 1386.15,-370.15 1380.15,-364.15 1380.15,-358.15 1380.15,-358.15 1380.15,-281.35 1380.15,-281.35 1380.15,-275.35 1386.15,-269.35 1392.15,-269.35 1392.15,-269.35 1468.95,-269.35 1468.95,-269.35 1474.95,-269.35 1480.95,-275.35 1480.95,-281.35 1480.95,-281.35 1480.95,-358.15 1480.95,-358.15 1480.95,-364.15 1474.95,-370.15 1468.95,-370.15"/>
<text xml:space="preserve" text-anchor="middle" x="1430.55" y="-270.5" font-family="Sans-Serif" font-size="13.00" fill="#2d3436">Target Group</text>
</g>
<!-- listener&#45;&gt;target_group -->
<g id="edge11" class="edge">
<title>listener&#45;&gt;target_group</title>
<path fill="none" stroke="#7b8894" d="M1229.6,-319.75C1229.6,-319.75 1368.52,-319.75 1368.52,-319.75"/>
<polygon fill="#7b8894" stroke="#7b8894" points="1368.52,-323.25 1378.52,-319.75 1368.51,-316.25 1368.52,-323.25"/>
</g>
<!-- health_check -->
<g id="node9" class="node">
<title>health_check</title>
<path fill="none" stroke="black" d="M1624.75,-370.15C1624.75,-370.15 1547.95,-370.15 1547.95,-370.15 1541.95,-370.15 1535.95,-364.15 1535.95,-358.15 1535.95,-358.15 1535.95,-281.35 1535.95,-281.35 1535.95,-275.35 1541.95,-269.35 1547.95,-269.35 1547.95,-269.35 1624.75,-269.35 1624.75,-269.35 1630.75,-269.35 1636.75,-275.35 1636.75,-281.35 1636.75,-281.35 1636.75,-358.15 1636.75,-358.15 1636.75,-364.15 1630.75,-370.15 1624.75,-370.15"/>
<text xml:space="preserve" text-anchor="middle" x="1586.35" y="-270.5" font-family="Sans-Serif" font-size="13.00" fill="#2d3436">Health Check</text>
</g>
<!-- target_group&#45;&gt;health_check -->
<g id="edge12" class="edge">
<title>target_group&#45;&gt;health_check</title>
<path fill="none" stroke="#7b8894" d="M1481.13,-319.75C1481.13,-319.75 1523.97,-319.75 1523.97,-319.75"/>
<polygon fill="#7b8894" stroke="#7b8894" points="1523.97,-323.25 1533.97,-319.75 1523.97,-316.25 1523.97,-323.25"/>
</g>
<!-- health_check&#45;&gt;eks -->
<g id="edge13" class="edge">
<title>health_check&#45;&gt;eks</title>
<path fill="none" stroke="#7b8894" d="M1586.2,-268.95C1586.2,-253.71 1586.2,-240.95 1586.2,-240.95 1586.2,-240.95 1787.54,-240.95 1787.54,-240.95"/>
<polygon fill="#7b8894" stroke="#7b8894" points="1787.54,-244.45 1797.54,-240.95 1787.54,-237.45 1787.54,-244.45"/>
<text xml:space="preserve" text-anchor="middle" x="1718.13" y="-299.95" font-family="Times,serif" font-size="14.00">4. Forwards to EKS</text>
</g>
<!-- node_group -->
<g id="node11" class="node">
<title>node_group</title>
<path fill="none" stroke="black" d="M2088.1,-255.15C2088.1,-255.15 2011.3,-255.15 2011.3,-255.15 2005.3,-255.15 1999.3,-249.15 1999.3,-243.15 1999.3,-243.15 1999.3,-166.35 1999.3,-166.35 1999.3,-160.35 2005.3,-154.35 2011.3,-154.35 2011.3,-154.35 2088.1,-154.35 2088.1,-154.35 2094.1,-154.35 2100.1,-160.35 2100.1,-166.35 2100.1,-166.35 2100.1,-243.15 2100.1,-243.15 2100.1,-249.15 2094.1,-255.15 2088.1,-255.15"/>
<text xml:space="preserve" text-anchor="middle" x="2049.7" y="-155.5" font-family="Sans-Serif" font-size="13.00" fill="#2d3436">Node Groups</text>
</g>
<!-- eks&#45;&gt;node_group -->
<g id="edge14" class="edge">
<title>eks&#45;&gt;node_group</title>
<path fill="none" stroke="#7b8894" d="M1900.58,-204.75C1900.58,-204.75 1987.56,-204.75 1987.56,-204.75"/>
<polygon fill="#7b8894" stroke="#7b8894" points="1987.56,-208.25 1997.56,-204.75 1987.56,-201.25 1987.56,-208.25"/>
<text xml:space="preserve" text-anchor="middle" x="1949.8" y="-207.95" font-family="Times,serif" font-size="14.00">Runs on</text>
</g>
<!-- namespace -->
<g id="node12" class="node">
<title>namespace</title>
<path fill="none" stroke="black" d="M2290.9,-255.15C2290.9,-255.15 2214.1,-255.15 2214.1,-255.15 2208.1,-255.15 2202.1,-249.15 2202.1,-243.15 2202.1,-243.15 2202.1,-166.35 2202.1,-166.35 2202.1,-160.35 2208.1,-154.35 2214.1,-154.35 2214.1,-154.35 2290.9,-154.35 2290.9,-154.35 2296.9,-154.35 2302.9,-160.35 2302.9,-166.35 2302.9,-166.35 2302.9,-243.15 2302.9,-243.15 2302.9,-249.15 2296.9,-255.15 2290.9,-255.15"/>
<text xml:space="preserve" text-anchor="middle" x="2252.5" y="-155.5" font-family="Sans-Serif" font-size="13.00" fill="#2d3436">Namespaces</text>
</g>
<!-- node_group&#45;&gt;namespace -->
<g id="edge15" class="edge">
<title>node_group&#45;&gt;namespace</title>
<path fill="none" stroke="#7b8894" d="M2100.35,-204.75C2100.35,-204.75 2190.28,-204.75 2190.28,-204.75"/>
<polygon fill="#7b8894" stroke="#7b8894" points="2190.28,-208.25 2200.28,-204.75 2190.28,-201.25 2190.28,-208.25"/>
<text xml:space="preserve" text-anchor="middle" x="2151.1" y="-207.95" font-family="Times,serif" font-size="14.00">Contains</text>
</g>
<!-- pods -->
<g id="node13" class="node">
<title>pods</title>
<path fill="none" stroke="black" d="M2495.2,-255.15C2495.2,-255.15 2418.4,-255.15 2418.4,-255.15 2412.4,-255.15 2406.4,-249.15 2406.4,-243.15 2406.4,-243.15 2406.4,-166.35 2406.4,-166.35 2406.4,-160.35 2412.4,-154.35 2418.4,-154.35 2418.4,-154.35 2495.2,-154.35 2495.2,-154.35 2501.2,-154.35 2507.2,-160.35 2507.2,-166.35 2507.2,-166.35 2507.2,-243.15 2507.2,-243.15 2507.2,-249.15 2501.2,-255.15 2495.2,-255.15"/>
<text xml:space="preserve" text-anchor="middle" x="2456.8" y="-155.5" font-family="Sans-Serif" font-size="13.00" fill="#2d3436">Pods</text>
</g>
<!-- namespace&#45;&gt;pods -->
<g id="edge16" class="edge">
<title>namespace&#45;&gt;pods</title>
<path fill="none" stroke="#7b8894" d="M2303.26,-204.75C2303.26,-204.75 2394.43,-204.75 2394.43,-204.75"/>
<polygon fill="#7b8894" stroke="#7b8894" points="2394.43,-208.25 2404.43,-204.75 2394.43,-201.25 2394.43,-208.25"/>
<text xml:space="preserve" text-anchor="middle" x="2354.65" y="-207.95" font-family="Times,serif" font-size="14.00">Manages</text>
</g>
<!-- user -->
<g id="node14" class="node">
<title>user</title>
<path fill="none" stroke="black" d="M88.8,-457.15C88.8,-457.15 12,-457.15 12,-457.15 6,-457.15 0,-451.15 0,-445.15 0,-445.15 0,-368.35 0,-368.35 0,-362.35 6,-356.35 12,-356.35 12,-356.35 88.8,-356.35 88.8,-356.35 94.8,-356.35 100.8,-362.35 100.8,-368.35 100.8,-368.35 100.8,-445.15 100.8,-445.15 100.8,-451.15 94.8,-457.15 88.8,-457.15"/>
<text xml:space="preserve" text-anchor="middle" x="50.4" y="-357.5" font-family="Sans-Serif" font-size="13.00" fill="#2d3436">User</text>
</g>
<!-- user&#45;&gt;r53 -->
<g id="edge7" class="edge">
<title>user&#45;&gt;r53</title>
<path fill="none" stroke="#7b8894" d="M101.19,-406.75C101.19,-406.75 258.35,-406.75 258.35,-406.75"/>
<polygon fill="#7b8894" stroke="#7b8894" points="258.35,-410.25 268.35,-406.75 258.35,-403.25 268.35,-410.25"/>
<text xml:space="preserve" text-anchor="middle" x="167.18" y="-409.95" font-family="Times,serif" font-size="14.00">1. DNS Query</text>
</g>
</g>
</svg>
